<mxfile host="Electron" agent="Mozilla/5.0 (X11; Linux x86_64) AppleWebKit/537.36 (KHTML, like Gecko) draw.io/26.0.16 Chrome/132.0.6834.196 Electron/34.2.0 Safari/537.36" version="26.0.16">
  <diagram name="Page-1" id="kA2rM4WstIDJVsflA-c7">
    <mxGraphModel dx="519" dy="986" grid="1" gridSize="10" guides="1" tooltips="1" connect="1" arrows="1" fold="1" page="1" pageScale="1" pageWidth="827" pageHeight="1169" math="0" shadow="0">
      <root>
        <mxCell id="0" />
        <mxCell id="1" parent="0" />
        <mxCell id="Ok_GLmIAVmcswBJtBPfv-15" value="MainView" style="swimlane;fontStyle=1;align=center;verticalAlign=top;childLayout=stackLayout;horizontal=1;startSize=26;horizontalStack=0;resizeParent=1;resizeParentMax=0;resizeLast=0;collapsible=1;marginBottom=0;whiteSpace=wrap;html=1;" parent="1" vertex="1">
          <mxGeometry x="400" y="165" width="240" height="86" as="geometry" />
        </mxCell>
        <mxCell id="Ok_GLmIAVmcswBJtBPfv-20" value="." style="text;strokeColor=none;fillColor=none;align=left;verticalAlign=top;spacingLeft=4;spacingRight=4;overflow=hidden;rotatable=0;points=[[0,0.5],[1,0.5]];portConstraint=eastwest;whiteSpace=wrap;html=1;" parent="Ok_GLmIAVmcswBJtBPfv-15" vertex="1">
          <mxGeometry y="26" width="240" height="26" as="geometry" />
        </mxCell>
        <mxCell id="Ok_GLmIAVmcswBJtBPfv-17" value="" style="line;strokeWidth=1;fillColor=none;align=left;verticalAlign=middle;spacingTop=-1;spacingLeft=3;spacingRight=3;rotatable=0;labelPosition=right;points=[];portConstraint=eastwest;strokeColor=inherit;" parent="Ok_GLmIAVmcswBJtBPfv-15" vertex="1">
          <mxGeometry y="52" width="240" height="8" as="geometry" />
        </mxCell>
        <mxCell id="Ok_GLmIAVmcswBJtBPfv-24" style="text;strokeColor=none;fillColor=none;align=left;verticalAlign=top;spacingLeft=4;spacingRight=4;overflow=hidden;rotatable=0;points=[[0,0.5],[1,0.5]];portConstraint=eastwest;whiteSpace=wrap;html=1;" parent="Ok_GLmIAVmcswBJtBPfv-15" vertex="1">
          <mxGeometry y="60" width="240" height="26" as="geometry" />
        </mxCell>
        <mxCell id="_7z-RG3UbTYtQ728K_5n-1" value="JLabel" style="html=1;whiteSpace=wrap;" parent="1" vertex="1">
          <mxGeometry x="170" y="90" width="110" height="50" as="geometry" />
        </mxCell>
        <mxCell id="_7z-RG3UbTYtQ728K_5n-2" value="JTextArea" style="html=1;whiteSpace=wrap;" parent="1" vertex="1">
          <mxGeometry x="170" y="270" width="110" height="50" as="geometry" />
        </mxCell>
        <mxCell id="_7z-RG3UbTYtQ728K_5n-3" value="JButton" style="html=1;whiteSpace=wrap;" parent="1" vertex="1">
          <mxGeometry x="170" y="183" width="110" height="50" as="geometry" />
        </mxCell>
        <mxCell id="_7z-RG3UbTYtQ728K_5n-7" value="MainControler" style="swimlane;fontStyle=1;align=center;verticalAlign=top;childLayout=stackLayout;horizontal=1;startSize=26;horizontalStack=0;resizeParent=1;resizeParentMax=0;resizeLast=0;collapsible=1;marginBottom=0;whiteSpace=wrap;html=1;" parent="1" vertex="1">
          <mxGeometry x="840" y="127.5" width="160" height="86" as="geometry" />
        </mxCell>
        <mxCell id="_7z-RG3UbTYtQ728K_5n-8" value="." style="text;strokeColor=none;fillColor=none;align=left;verticalAlign=top;spacingLeft=4;spacingRight=4;overflow=hidden;rotatable=0;points=[[0,0.5],[1,0.5]];portConstraint=eastwest;whiteSpace=wrap;html=1;" parent="_7z-RG3UbTYtQ728K_5n-7" vertex="1">
          <mxGeometry y="26" width="160" height="26" as="geometry" />
        </mxCell>
        <mxCell id="_7z-RG3UbTYtQ728K_5n-9" value="" style="line;strokeWidth=1;fillColor=none;align=left;verticalAlign=middle;spacingTop=-1;spacingLeft=3;spacingRight=3;rotatable=0;labelPosition=right;points=[];portConstraint=eastwest;strokeColor=inherit;" parent="_7z-RG3UbTYtQ728K_5n-7" vertex="1">
          <mxGeometry y="52" width="160" height="8" as="geometry" />
        </mxCell>
        <mxCell id="_7z-RG3UbTYtQ728K_5n-10" value="." style="text;strokeColor=none;fillColor=none;align=left;verticalAlign=top;spacingLeft=4;spacingRight=4;overflow=hidden;rotatable=0;points=[[0,0.5],[1,0.5]];portConstraint=eastwest;whiteSpace=wrap;html=1;" parent="_7z-RG3UbTYtQ728K_5n-7" vertex="1">
          <mxGeometry y="60" width="160" height="26" as="geometry" />
        </mxCell>
        <mxCell id="_7z-RG3UbTYtQ728K_5n-11" value="RunActionListener" style="swimlane;fontStyle=1;align=center;verticalAlign=top;childLayout=stackLayout;horizontal=1;startSize=26;horizontalStack=0;resizeParent=1;resizeParentMax=0;resizeLast=0;collapsible=1;marginBottom=0;whiteSpace=wrap;html=1;" parent="1" vertex="1">
          <mxGeometry x="1140" width="160" height="86" as="geometry" />
        </mxCell>
        <mxCell id="_7z-RG3UbTYtQ728K_5n-12" value="." style="text;strokeColor=none;fillColor=none;align=left;verticalAlign=top;spacingLeft=4;spacingRight=4;overflow=hidden;rotatable=0;points=[[0,0.5],[1,0.5]];portConstraint=eastwest;whiteSpace=wrap;html=1;" parent="_7z-RG3UbTYtQ728K_5n-11" vertex="1">
          <mxGeometry y="26" width="160" height="26" as="geometry" />
        </mxCell>
        <mxCell id="_7z-RG3UbTYtQ728K_5n-13" value="" style="line;strokeWidth=1;fillColor=none;align=left;verticalAlign=middle;spacingTop=-1;spacingLeft=3;spacingRight=3;rotatable=0;labelPosition=right;points=[];portConstraint=eastwest;strokeColor=inherit;" parent="_7z-RG3UbTYtQ728K_5n-11" vertex="1">
          <mxGeometry y="52" width="160" height="8" as="geometry" />
        </mxCell>
        <mxCell id="_7z-RG3UbTYtQ728K_5n-14" value="." style="text;strokeColor=none;fillColor=none;align=left;verticalAlign=top;spacingLeft=4;spacingRight=4;overflow=hidden;rotatable=0;points=[[0,0.5],[1,0.5]];portConstraint=eastwest;whiteSpace=wrap;html=1;" parent="_7z-RG3UbTYtQ728K_5n-11" vertex="1">
          <mxGeometry y="60" width="160" height="26" as="geometry" />
        </mxCell>
        <mxCell id="_7z-RG3UbTYtQ728K_5n-15" value="SwitchActionListener" style="swimlane;fontStyle=1;align=center;verticalAlign=top;childLayout=stackLayout;horizontal=1;startSize=26;horizontalStack=0;resizeParent=1;resizeParentMax=0;resizeLast=0;collapsible=1;marginBottom=0;whiteSpace=wrap;html=1;" parent="1" vertex="1">
          <mxGeometry x="1140" y="127" width="160" height="86" as="geometry" />
        </mxCell>
        <mxCell id="_7z-RG3UbTYtQ728K_5n-16" value="." style="text;strokeColor=none;fillColor=none;align=left;verticalAlign=top;spacingLeft=4;spacingRight=4;overflow=hidden;rotatable=0;points=[[0,0.5],[1,0.5]];portConstraint=eastwest;whiteSpace=wrap;html=1;" parent="_7z-RG3UbTYtQ728K_5n-15" vertex="1">
          <mxGeometry y="26" width="160" height="26" as="geometry" />
        </mxCell>
        <mxCell id="_7z-RG3UbTYtQ728K_5n-17" value="" style="line;strokeWidth=1;fillColor=none;align=left;verticalAlign=middle;spacingTop=-1;spacingLeft=3;spacingRight=3;rotatable=0;labelPosition=right;points=[];portConstraint=eastwest;strokeColor=inherit;" parent="_7z-RG3UbTYtQ728K_5n-15" vertex="1">
          <mxGeometry y="52" width="160" height="8" as="geometry" />
        </mxCell>
        <mxCell id="_7z-RG3UbTYtQ728K_5n-18" value="." style="text;strokeColor=none;fillColor=none;align=left;verticalAlign=top;spacingLeft=4;spacingRight=4;overflow=hidden;rotatable=0;points=[[0,0.5],[1,0.5]];portConstraint=eastwest;whiteSpace=wrap;html=1;" parent="_7z-RG3UbTYtQ728K_5n-15" vertex="1">
          <mxGeometry y="60" width="160" height="26" as="geometry" />
        </mxCell>
        <mxCell id="_7z-RG3UbTYtQ728K_5n-19" value="OriginDocumentListener" style="swimlane;fontStyle=1;align=center;verticalAlign=top;childLayout=stackLayout;horizontal=1;startSize=26;horizontalStack=0;resizeParent=1;resizeParentMax=0;resizeLast=0;collapsible=1;marginBottom=0;whiteSpace=wrap;html=1;" parent="1" vertex="1">
          <mxGeometry x="1140" y="322.5" width="160" height="86" as="geometry" />
        </mxCell>
        <mxCell id="_7z-RG3UbTYtQ728K_5n-20" value="." style="text;strokeColor=none;fillColor=none;align=left;verticalAlign=top;spacingLeft=4;spacingRight=4;overflow=hidden;rotatable=0;points=[[0,0.5],[1,0.5]];portConstraint=eastwest;whiteSpace=wrap;html=1;" parent="_7z-RG3UbTYtQ728K_5n-19" vertex="1">
          <mxGeometry y="26" width="160" height="26" as="geometry" />
        </mxCell>
        <mxCell id="_7z-RG3UbTYtQ728K_5n-21" value="" style="line;strokeWidth=1;fillColor=none;align=left;verticalAlign=middle;spacingTop=-1;spacingLeft=3;spacingRight=3;rotatable=0;labelPosition=right;points=[];portConstraint=eastwest;strokeColor=inherit;" parent="_7z-RG3UbTYtQ728K_5n-19" vertex="1">
          <mxGeometry y="52" width="160" height="8" as="geometry" />
        </mxCell>
        <mxCell id="_7z-RG3UbTYtQ728K_5n-22" value="." style="text;strokeColor=none;fillColor=none;align=left;verticalAlign=top;spacingLeft=4;spacingRight=4;overflow=hidden;rotatable=0;points=[[0,0.5],[1,0.5]];portConstraint=eastwest;whiteSpace=wrap;html=1;" parent="_7z-RG3UbTYtQ728K_5n-19" vertex="1">
          <mxGeometry y="60" width="160" height="26" as="geometry" />
        </mxCell>
        <mxCell id="_7z-RG3UbTYtQ728K_5n-24" value="ActionListener" style="html=1;whiteSpace=wrap;" parent="1" vertex="1">
          <mxGeometry x="1400" y="145.5" width="110" height="50" as="geometry" />
        </mxCell>
        <mxCell id="_7z-RG3UbTYtQ728K_5n-25" value="DocumentListener" style="html=1;whiteSpace=wrap;" parent="1" vertex="1">
          <mxGeometry x="1410" y="340.5" width="110" height="50" as="geometry" />
        </mxCell>
        <mxCell id="_7z-RG3UbTYtQ728K_5n-39" value="" style="endArrow=diamond;html=1;endSize=12;startArrow=none;startSize=14;startFill=0;rounded=0;endFill=1;" parent="1" source="_7z-RG3UbTYtQ728K_5n-1" target="Ok_GLmIAVmcswBJtBPfv-15" edge="1">
          <mxGeometry relative="1" as="geometry">
            <mxPoint x="370" y="300" as="sourcePoint" />
            <mxPoint x="530" y="300" as="targetPoint" />
          </mxGeometry>
        </mxCell>
        <mxCell id="_7z-RG3UbTYtQ728K_5n-40" value="2..*" style="edgeLabel;resizable=0;html=1;align=left;verticalAlign=top;" parent="_7z-RG3UbTYtQ728K_5n-39" connectable="0" vertex="1">
          <mxGeometry x="-1" relative="1" as="geometry" />
        </mxCell>
        <mxCell id="_7z-RG3UbTYtQ728K_5n-41" value="1" style="edgeLabel;resizable=0;html=1;align=right;verticalAlign=top;" parent="_7z-RG3UbTYtQ728K_5n-39" connectable="0" vertex="1">
          <mxGeometry x="1" relative="1" as="geometry">
            <mxPoint x="-10" y="-25" as="offset" />
          </mxGeometry>
        </mxCell>
        <mxCell id="_7z-RG3UbTYtQ728K_5n-43" value="" style="endArrow=diamond;html=1;endSize=12;startArrow=none;startSize=14;startFill=0;rounded=0;endFill=1;" parent="1" source="_7z-RG3UbTYtQ728K_5n-3" target="Ok_GLmIAVmcswBJtBPfv-15" edge="1">
          <mxGeometry relative="1" as="geometry">
            <mxPoint x="290" y="125" as="sourcePoint" />
            <mxPoint x="530" y="175" as="targetPoint" />
          </mxGeometry>
        </mxCell>
        <mxCell id="_7z-RG3UbTYtQ728K_5n-44" value="3" style="edgeLabel;resizable=0;html=1;align=left;verticalAlign=top;" parent="_7z-RG3UbTYtQ728K_5n-43" connectable="0" vertex="1">
          <mxGeometry x="-1" relative="1" as="geometry">
            <mxPoint y="2" as="offset" />
          </mxGeometry>
        </mxCell>
        <mxCell id="_7z-RG3UbTYtQ728K_5n-45" value="1" style="edgeLabel;resizable=0;html=1;align=right;verticalAlign=top;" parent="_7z-RG3UbTYtQ728K_5n-43" connectable="0" vertex="1">
          <mxGeometry x="1" relative="1" as="geometry">
            <mxPoint x="-10" y="2" as="offset" />
          </mxGeometry>
        </mxCell>
        <mxCell id="_7z-RG3UbTYtQ728K_5n-46" value="" style="endArrow=diamond;html=1;endSize=12;startArrow=none;startSize=14;startFill=0;rounded=0;endFill=1;" parent="1" source="_7z-RG3UbTYtQ728K_5n-2" target="Ok_GLmIAVmcswBJtBPfv-15" edge="1">
          <mxGeometry relative="1" as="geometry">
            <mxPoint x="290" y="125" as="sourcePoint" />
            <mxPoint x="530" y="175" as="targetPoint" />
          </mxGeometry>
        </mxCell>
        <mxCell id="_7z-RG3UbTYtQ728K_5n-47" value="2..*" style="edgeLabel;resizable=0;html=1;align=left;verticalAlign=top;" parent="_7z-RG3UbTYtQ728K_5n-46" connectable="0" vertex="1">
          <mxGeometry x="-1" relative="1" as="geometry" />
        </mxCell>
        <mxCell id="_7z-RG3UbTYtQ728K_5n-48" value="1" style="edgeLabel;resizable=0;html=1;align=right;verticalAlign=top;" parent="_7z-RG3UbTYtQ728K_5n-46" connectable="0" vertex="1">
          <mxGeometry x="1" relative="1" as="geometry">
            <mxPoint x="-10" y="-1" as="offset" />
          </mxGeometry>
        </mxCell>
        <mxCell id="_7z-RG3UbTYtQ728K_5n-49" value="" style="endArrow=diamond;html=1;endSize=12;startArrow=none;startSize=14;startFill=0;rounded=0;endFill=1;edgeStyle=orthogonalEdgeStyle;curved=1;" parent="1" source="_7z-RG3UbTYtQ728K_5n-11" target="_7z-RG3UbTYtQ728K_5n-7" edge="1">
          <mxGeometry relative="1" as="geometry">
            <mxPoint x="420" y="87.5" as="sourcePoint" />
            <mxPoint x="660" y="137.5" as="targetPoint" />
          </mxGeometry>
        </mxCell>
        <mxCell id="_7z-RG3UbTYtQ728K_5n-50" value="1" style="edgeLabel;resizable=0;html=1;align=left;verticalAlign=top;" parent="_7z-RG3UbTYtQ728K_5n-49" connectable="0" vertex="1">
          <mxGeometry x="-1" relative="1" as="geometry">
            <mxPoint x="-20" as="offset" />
          </mxGeometry>
        </mxCell>
        <mxCell id="_7z-RG3UbTYtQ728K_5n-51" value="1" style="edgeLabel;resizable=0;html=1;align=right;verticalAlign=top;" parent="_7z-RG3UbTYtQ728K_5n-49" connectable="0" vertex="1">
          <mxGeometry x="1" relative="1" as="geometry">
            <mxPoint x="-10" y="-25" as="offset" />
          </mxGeometry>
        </mxCell>
        <mxCell id="_7z-RG3UbTYtQ728K_5n-52" value="" style="endArrow=diamond;html=1;endSize=12;startArrow=none;startSize=14;startFill=0;rounded=0;endFill=1;edgeStyle=orthogonalEdgeStyle;curved=1;" parent="1" source="_7z-RG3UbTYtQ728K_5n-15" target="_7z-RG3UbTYtQ728K_5n-7" edge="1">
          <mxGeometry relative="1" as="geometry">
            <mxPoint x="1180" y="108.5" as="sourcePoint" />
            <mxPoint x="1010" y="180.5" as="targetPoint" />
          </mxGeometry>
        </mxCell>
        <mxCell id="_7z-RG3UbTYtQ728K_5n-53" value="1" style="edgeLabel;resizable=0;html=1;align=left;verticalAlign=top;" parent="_7z-RG3UbTYtQ728K_5n-52" connectable="0" vertex="1">
          <mxGeometry x="-1" relative="1" as="geometry">
            <mxPoint x="-20" y="2" as="offset" />
          </mxGeometry>
        </mxCell>
        <mxCell id="_7z-RG3UbTYtQ728K_5n-54" value="1" style="edgeLabel;resizable=0;html=1;align=right;verticalAlign=top;" parent="_7z-RG3UbTYtQ728K_5n-52" connectable="0" vertex="1">
          <mxGeometry x="1" relative="1" as="geometry">
            <mxPoint x="20" y="2" as="offset" />
          </mxGeometry>
        </mxCell>
        <mxCell id="_7z-RG3UbTYtQ728K_5n-55" value="" style="endArrow=diamond;html=1;endSize=12;startArrow=none;startSize=14;startFill=0;rounded=0;endFill=1;edgeStyle=orthogonalEdgeStyle;curved=1;" parent="1" source="_7z-RG3UbTYtQ728K_5n-19" target="_7z-RG3UbTYtQ728K_5n-7" edge="1">
          <mxGeometry relative="1" as="geometry">
            <mxPoint x="1180" y="235.5" as="sourcePoint" />
            <mxPoint x="1010" y="180.5" as="targetPoint" />
          </mxGeometry>
        </mxCell>
        <mxCell id="_7z-RG3UbTYtQ728K_5n-56" value="1" style="edgeLabel;resizable=0;html=1;align=left;verticalAlign=top;" parent="_7z-RG3UbTYtQ728K_5n-55" connectable="0" vertex="1">
          <mxGeometry x="-1" relative="1" as="geometry">
            <mxPoint x="-20" as="offset" />
          </mxGeometry>
        </mxCell>
        <mxCell id="_7z-RG3UbTYtQ728K_5n-57" value="1" style="edgeLabel;resizable=0;html=1;align=right;verticalAlign=top;" parent="_7z-RG3UbTYtQ728K_5n-55" connectable="0" vertex="1">
          <mxGeometry x="1" relative="1" as="geometry">
            <mxPoint x="-10" y="-1" as="offset" />
          </mxGeometry>
        </mxCell>
        <mxCell id="_7z-RG3UbTYtQ728K_5n-58" value="" style="endArrow=block;html=1;endSize=12;startArrow=none;startSize=14;startFill=0;rounded=0;endFill=0;edgeStyle=orthogonalEdgeStyle;curved=1;dashed=1;" parent="1" source="_7z-RG3UbTYtQ728K_5n-11" target="_7z-RG3UbTYtQ728K_5n-24" edge="1">
          <mxGeometry relative="1" as="geometry">
            <mxPoint x="1150" y="52.5" as="sourcePoint" />
            <mxPoint x="930" y="137.5" as="targetPoint" />
          </mxGeometry>
        </mxCell>
        <mxCell id="_7z-RG3UbTYtQ728K_5n-61" value="" style="endArrow=block;html=1;endSize=12;startArrow=none;startSize=14;startFill=0;rounded=0;endFill=0;edgeStyle=orthogonalEdgeStyle;curved=1;dashed=1;" parent="1" source="_7z-RG3UbTYtQ728K_5n-15" target="_7z-RG3UbTYtQ728K_5n-24" edge="1">
          <mxGeometry relative="1" as="geometry">
            <mxPoint x="1310" y="52.5" as="sourcePoint" />
            <mxPoint x="1465" y="151.5" as="targetPoint" />
          </mxGeometry>
        </mxCell>
        <mxCell id="_7z-RG3UbTYtQ728K_5n-62" value="" style="endArrow=block;html=1;endSize=12;startArrow=none;startSize=14;startFill=0;rounded=0;endFill=0;edgeStyle=orthogonalEdgeStyle;curved=1;dashed=1;" parent="1" source="_7z-RG3UbTYtQ728K_5n-19" target="_7z-RG3UbTYtQ728K_5n-25" edge="1">
          <mxGeometry relative="1" as="geometry">
            <mxPoint x="1310" y="180.5" as="sourcePoint" />
            <mxPoint x="1410" y="176.5" as="targetPoint" />
          </mxGeometry>
        </mxCell>
        <mxCell id="_7z-RG3UbTYtQ728K_5n-63" value="OptionActionListener" style="swimlane;fontStyle=1;align=center;verticalAlign=top;childLayout=stackLayout;horizontal=1;startSize=26;horizontalStack=0;resizeParent=1;resizeParentMax=0;resizeLast=0;collapsible=1;marginBottom=0;whiteSpace=wrap;html=1;" parent="1" vertex="1">
          <mxGeometry x="1140" y="229" width="160" height="86" as="geometry" />
        </mxCell>
        <mxCell id="_7z-RG3UbTYtQ728K_5n-64" value="." style="text;strokeColor=none;fillColor=none;align=left;verticalAlign=top;spacingLeft=4;spacingRight=4;overflow=hidden;rotatable=0;points=[[0,0.5],[1,0.5]];portConstraint=eastwest;whiteSpace=wrap;html=1;" parent="_7z-RG3UbTYtQ728K_5n-63" vertex="1">
          <mxGeometry y="26" width="160" height="26" as="geometry" />
        </mxCell>
        <mxCell id="_7z-RG3UbTYtQ728K_5n-65" value="" style="line;strokeWidth=1;fillColor=none;align=left;verticalAlign=middle;spacingTop=-1;spacingLeft=3;spacingRight=3;rotatable=0;labelPosition=right;points=[];portConstraint=eastwest;strokeColor=inherit;" parent="_7z-RG3UbTYtQ728K_5n-63" vertex="1">
          <mxGeometry y="52" width="160" height="8" as="geometry" />
        </mxCell>
        <mxCell id="_7z-RG3UbTYtQ728K_5n-66" value="." style="text;strokeColor=none;fillColor=none;align=left;verticalAlign=top;spacingLeft=4;spacingRight=4;overflow=hidden;rotatable=0;points=[[0,0.5],[1,0.5]];portConstraint=eastwest;whiteSpace=wrap;html=1;" parent="_7z-RG3UbTYtQ728K_5n-63" vertex="1">
          <mxGeometry y="60" width="160" height="26" as="geometry" />
        </mxCell>
        <mxCell id="_7z-RG3UbTYtQ728K_5n-67" value="JPanel" style="html=1;whiteSpace=wrap;" parent="1" vertex="1">
          <mxGeometry x="465" y="77" width="110" height="50" as="geometry" />
        </mxCell>
        <mxCell id="_7z-RG3UbTYtQ728K_5n-69" value="" style="endArrow=none;html=1;endSize=12;startArrow=block;startSize=14;startFill=0;rounded=0;endFill=1;edgeStyle=orthogonalEdgeStyle;curved=1;" parent="1" source="_7z-RG3UbTYtQ728K_5n-67" target="Ok_GLmIAVmcswBJtBPfv-15" edge="1">
          <mxGeometry relative="1" as="geometry">
            <mxPoint x="300" y="456.5172413793107" as="sourcePoint" />
            <mxPoint x="540" y="330" as="targetPoint" />
          </mxGeometry>
        </mxCell>
        <mxCell id="_7z-RG3UbTYtQ728K_5n-75" value="" style="endArrow=block;html=1;endSize=12;startArrow=none;startSize=14;startFill=0;rounded=0;endFill=0;edgeStyle=orthogonalEdgeStyle;curved=1;dashed=1;" parent="1" source="_7z-RG3UbTYtQ728K_5n-63" target="_7z-RG3UbTYtQ728K_5n-24" edge="1">
          <mxGeometry relative="1" as="geometry">
            <mxPoint x="1310" y="179.5" as="sourcePoint" />
            <mxPoint x="1410" y="180.5" as="targetPoint" />
          </mxGeometry>
        </mxCell>
        <mxCell id="_7z-RG3UbTYtQ728K_5n-76" value="" style="rounded=0;whiteSpace=wrap;html=1;" parent="1" vertex="1">
          <mxGeometry x="90" y="860" width="1920" height="1080" as="geometry" />
        </mxCell>
        <mxCell id="_7z-RG3UbTYtQ728K_5n-77" value="&lt;font style=&quot;font-size: 48px;&quot;&gt;RUN&lt;/font&gt;" style="rounded=0;whiteSpace=wrap;html=1;" parent="1" vertex="1">
          <mxGeometry x="90" y="1790" width="1920" height="150" as="geometry" />
        </mxCell>
        <mxCell id="_7z-RG3UbTYtQ728K_5n-78" value="&lt;font style=&quot;font-size: 48px;&quot;&gt;Origin&lt;/font&gt;" style="rounded=0;whiteSpace=wrap;html=1;" parent="1" vertex="1">
          <mxGeometry x="90" y="860" width="210" height="150" as="geometry" />
        </mxCell>
        <mxCell id="_7z-RG3UbTYtQ728K_5n-79" value="&lt;span style=&quot;font-size: 48px;&quot;&gt;Python&lt;/span&gt;" style="rounded=0;whiteSpace=wrap;html=1;" parent="1" vertex="1">
          <mxGeometry x="520" y="860" width="458" height="150" as="geometry" />
        </mxCell>
        <mxCell id="_7z-RG3UbTYtQ728K_5n-80" value="&lt;span style=&quot;font-size: 48px;&quot;&gt;SWITCH&lt;/span&gt;" style="rounded=0;whiteSpace=wrap;html=1;" parent="1" vertex="1">
          <mxGeometry x="300" y="860" width="220" height="150" as="geometry" />
        </mxCell>
        <mxCell id="_7z-RG3UbTYtQ728K_5n-81" value="&lt;span style=&quot;font-size: 57px;&quot;&gt;PSEUDO LANGAGE&lt;/span&gt;" style="rounded=0;whiteSpace=wrap;html=1;" parent="1" vertex="1">
          <mxGeometry x="110" y="1040" width="410" height="730" as="geometry" />
        </mxCell>
        <mxCell id="_7z-RG3UbTYtQ728K_5n-82" value="&lt;span style=&quot;font-size: 57px;&quot;&gt;PYTHON&lt;/span&gt;" style="rounded=0;whiteSpace=wrap;html=1;" parent="1" vertex="1">
          <mxGeometry x="544" y="1035" width="410" height="730" as="geometry" />
        </mxCell>
        <mxCell id="_7z-RG3UbTYtQ728K_5n-83" value="&lt;span style=&quot;font-size: 57px;&quot;&gt;JAVA&lt;/span&gt;" style="rounded=0;whiteSpace=wrap;html=1;" parent="1" vertex="1">
          <mxGeometry x="1015" y="1035" width="410" height="730" as="geometry" />
        </mxCell>
        <mxCell id="_7z-RG3UbTYtQ728K_5n-84" value="&lt;span style=&quot;font-size: 57px;&quot;&gt;C++&lt;/span&gt;" style="rounded=0;whiteSpace=wrap;html=1;" parent="1" vertex="1">
          <mxGeometry x="1454" y="1035" width="410" height="730" as="geometry" />
        </mxCell>
        <mxCell id="_7z-RG3UbTYtQ728K_5n-85" value="&lt;span style=&quot;font-size: 48px;&quot;&gt;JAVA&lt;/span&gt;&lt;span style=&quot;color: rgba(0, 0, 0, 0); font-family: monospace; font-size: 0px; text-align: start; text-wrap-mode: nowrap;&quot;&gt;%3CmxGraphModel%3E%3Croot%3E%3CmxCell%20id%3D%220%22%2F%3E%3CmxCell%20id%3D%221%22%20parent%3D%220%22%2F%3E%3CmxCell%20id%3D%222%22%20value%3D%22%26lt%3Bspan%20style%3D%26quot%3Bfont-size%3A%2048px%3B%26quot%3B%26gt%3BPython%26lt%3B%2Fspan%26gt%3B%22%20style%3D%22rounded%3D0%3BwhiteSpace%3Dwrap%3Bhtml%3D1%3B%22%20vertex%3D%221%22%20parent%3D%221%22%3E%3CmxGeometry%20x%3D%22520%22%20y%3D%22860%22%20width%3D%22490%22%20height%3D%22150%22%20as%3D%22geometry%22%2F%3E%3C%2FmxCell%3E%3C%2Froot%3E%3C%2FmxGraphModel%3E&lt;/span&gt;" style="rounded=0;whiteSpace=wrap;html=1;" parent="1" vertex="1">
          <mxGeometry x="978" y="860" width="458" height="150" as="geometry" />
        </mxCell>
        <mxCell id="_7z-RG3UbTYtQ728K_5n-86" value="&lt;span style=&quot;font-size: 48px;&quot;&gt;C++&lt;/span&gt;" style="rounded=0;whiteSpace=wrap;html=1;" parent="1" vertex="1">
          <mxGeometry x="1430" y="860" width="458" height="150" as="geometry" />
        </mxCell>
        <mxCell id="_7z-RG3UbTYtQ728K_5n-87" value="&lt;span style=&quot;font-size: 48px;&quot;&gt;option&lt;/span&gt;" style="rounded=0;whiteSpace=wrap;html=1;" parent="1" vertex="1">
          <mxGeometry x="1888" y="860" width="122" height="150" as="geometry" />
        </mxCell>
        <mxCell id="_7z-RG3UbTYtQ728K_5n-88" value="McDaLang" style="swimlane;fontStyle=1;align=center;verticalAlign=top;childLayout=stackLayout;horizontal=1;startSize=26;horizontalStack=0;resizeParent=1;resizeParentMax=0;resizeLast=0;collapsible=1;marginBottom=0;whiteSpace=wrap;html=1;" parent="1" vertex="1">
          <mxGeometry x="640" y="450" width="160" height="86" as="geometry" />
        </mxCell>
        <mxCell id="_7z-RG3UbTYtQ728K_5n-89" value="." style="text;strokeColor=none;fillColor=none;align=left;verticalAlign=top;spacingLeft=4;spacingRight=4;overflow=hidden;rotatable=0;points=[[0,0.5],[1,0.5]];portConstraint=eastwest;whiteSpace=wrap;html=1;" parent="_7z-RG3UbTYtQ728K_5n-88" vertex="1">
          <mxGeometry y="26" width="160" height="26" as="geometry" />
        </mxCell>
        <mxCell id="_7z-RG3UbTYtQ728K_5n-90" value="" style="line;strokeWidth=1;fillColor=none;align=left;verticalAlign=middle;spacingTop=-1;spacingLeft=3;spacingRight=3;rotatable=0;labelPosition=right;points=[];portConstraint=eastwest;strokeColor=inherit;" parent="_7z-RG3UbTYtQ728K_5n-88" vertex="1">
          <mxGeometry y="52" width="160" height="8" as="geometry" />
        </mxCell>
        <mxCell id="_7z-RG3UbTYtQ728K_5n-91" value="." style="text;strokeColor=none;fillColor=none;align=left;verticalAlign=top;spacingLeft=4;spacingRight=4;overflow=hidden;rotatable=0;points=[[0,0.5],[1,0.5]];portConstraint=eastwest;whiteSpace=wrap;html=1;" parent="_7z-RG3UbTYtQ728K_5n-88" vertex="1">
          <mxGeometry y="60" width="160" height="26" as="geometry" />
        </mxCell>
        <mxCell id="_7z-RG3UbTYtQ728K_5n-101" value="" style="endArrow=none;html=1;endSize=12;startArrow=open;startSize=14;startFill=0;rounded=0;endFill=1;dashed=1;" parent="1" source="_7z-RG3UbTYtQ728K_5n-88" target="Ok_GLmIAVmcswBJtBPfv-15" edge="1">
          <mxGeometry relative="1" as="geometry">
            <mxPoint x="730" y="380" as="sourcePoint" />
            <mxPoint x="730" y="460" as="targetPoint" />
          </mxGeometry>
        </mxCell>
        <mxCell id="_7z-RG3UbTYtQ728K_5n-102" value="" style="endArrow=none;html=1;endSize=12;startArrow=open;startSize=14;startFill=0;rounded=0;endFill=1;dashed=1;" parent="1" source="_7z-RG3UbTYtQ728K_5n-88" target="_7z-RG3UbTYtQ728K_5n-7" edge="1">
          <mxGeometry relative="1" as="geometry">
            <mxPoint x="700" y="460" as="sourcePoint" />
            <mxPoint x="560" y="261" as="targetPoint" />
          </mxGeometry>
        </mxCell>
        <mxCell id="_7z-RG3UbTYtQ728K_5n-103" value="" style="endArrow=none;html=1;endSize=12;startArrow=open;startSize=14;startFill=0;rounded=0;endFill=1;dashed=1;" parent="1" source="Ok_GLmIAVmcswBJtBPfv-15" target="_7z-RG3UbTYtQ728K_5n-7" edge="1">
          <mxGeometry relative="1" as="geometry">
            <mxPoint x="700" y="460" as="sourcePoint" />
            <mxPoint x="560" y="261" as="targetPoint" />
          </mxGeometry>
        </mxCell>
        <mxCell id="_7z-RG3UbTYtQ728K_5n-104" value="" style="endArrow=diamond;html=1;endSize=12;startArrow=none;startSize=14;startFill=0;rounded=0;endFill=1;strokeColor=default;" parent="1" source="_7z-RG3UbTYtQ728K_5n-63" target="_7z-RG3UbTYtQ728K_5n-7" edge="1">
          <mxGeometry relative="1" as="geometry">
            <mxPoint x="1150" y="180" as="sourcePoint" />
            <mxPoint x="1010" y="180" as="targetPoint" />
          </mxGeometry>
        </mxCell>
        <mxCell id="_7z-RG3UbTYtQ728K_5n-105" value="1" style="edgeLabel;resizable=0;html=1;align=left;verticalAlign=top;" parent="_7z-RG3UbTYtQ728K_5n-104" connectable="0" vertex="1">
          <mxGeometry x="-1" relative="1" as="geometry">
            <mxPoint x="-20" y="2" as="offset" />
          </mxGeometry>
        </mxCell>
        <mxCell id="_7z-RG3UbTYtQ728K_5n-106" value="1" style="edgeLabel;resizable=0;html=1;align=right;verticalAlign=top;" parent="_7z-RG3UbTYtQ728K_5n-104" connectable="0" vertex="1">
          <mxGeometry x="1" relative="1" as="geometry">
            <mxPoint x="20" y="2" as="offset" />
          </mxGeometry>
        </mxCell>
      </root>
    </mxGraphModel>
  </diagram>
</mxfile>
